<svg width="1000" height="1000" viewBox="0 0 1000 1000" fill="none" xmlns="http://www.w3.org/2000/svg">
<path d="M743.317 438.725L738.867 436.075L737.983 425H731.025C724.683 316.667 623.675 235.167 499.992 235.167C395.458 235.167 307.133 295.1 278.467 377.483L293.808 180.958L299.683 177.425L366.667 180.55V168.233L400 149.483V136.083L287.325 129.383L253.75 145.192L280.5 194.217L261.292 435.917L256.75 438.725L249.983 540.608L240.883 540.058L237.05 602.083L245.858 602.617L237.042 742.092L414.408 866.667H499.5H585.567L762.95 742.1L743.317 438.725ZM499.992 250.075C612.692 250.075 705.083 325 711.217 425H288.775C294.9 325 387.292 250.075 499.992 250.075ZM280.108 749.058C333.267 529.592 404.767 672.658 415.2 842.008L280.108 749.058ZM584.017 842.008C594.45 672.658 665.95 529.592 719.108 749.058L584.017 842.008ZM730.792 737.775L714.358 527.792C596.133 527.792 573.475 666.667 573.475 841.667H550V530.058C550 530.058 663.608 496.658 710.758 495.233L709.383 458.333H289.833L288.858 495.242C336 496.667 450 530.058 450 530.058V841.667H425.742C425.742 666.667 403.083 527.275 284.858 527.275L268.417 737.883L257.342 729.225L278.217 441.667H721.008L741.883 728.658L730.792 737.775Z" fill="#A6A6A6"/>
<path d="M558.817 395.183L516.667 405.717V384.642L558.817 395.183Z" fill="#A6A6A6"/>
<path d="M449.509 395.183L491.667 384.642V405.717L449.509 395.183Z" fill="#A6A6A6"/>
<path d="M365.059 374.875C380.134 329.1 418.367 291.05 457.359 272.708C382.934 288.25 320.767 341.667 309.825 400H358.609C359.984 391.667 362.092 383.883 365.059 374.875Z" fill="#A6A6A6"/>
</svg>
